<svg width="24" height="24" viewBox="0 0 24 24" fill="none" xmlns="http://www.w3.org/2000/svg">
<path d="M15.972 18.9443C14.6548 19.6977 13.1506 20.0609 11.6348 19.9917C10.119 19.9224 8.65415 19.4235 7.41122 18.5531C6.16828 17.6827 5.1985 16.4768 4.61505 15.0761C4.0316 13.6754 3.85853 12.1376 4.11606 10.6423C4.37358 9.14691 5.05107 7.75562 6.06946 6.63076C7.08785 5.50591 8.40515 4.69387 9.86763 4.28942C11.3301 3.88497 12.8775 3.90479 14.3291 4.34655C15.7807 4.78831 18.0107 6.34944 19 7.5M19 7.5L14.5 8M19 7.5L17.5 2.5" stroke="black" stroke-width="3" stroke-linecap="round" stroke-linejoin="round"/>
</svg>
